GRF
version=1
nRows=21
nColumns=19
inDegrees=no
endheader
time	ground_force_vx	ground_force_vy	ground_force_vz	ground_force_px	ground_force_py	ground_force_pz	ground_torque_x	ground_torque_y	ground_torque_z	1_ground_force_vx	1_ground_force_vy	1_ground_force_vz	1_ground_force_px	1_ground_force_py	1_ground_force_pz	1_ground_torque_x	1_ground_torque_y	1_ground_torque_z
      5.25000000	    -68.03117735	    702.03828482	     29.89589225	      0.11480058	     -0.00000000	      0.04787374	     -0.00000000	     -1.29236611	      0.00000000	      0.00030066	      0.02103532	      0.01711524	     -0.06658052	      0.00000000	      0.42239900	      0.00000000	      1.25442962	     -0.00000000
      5.25100000	    -68.00581131	    701.74706537	     29.87084205	      0.11480373	     -0.00000000	      0.04769382	     -0.00000000	     -1.28351330	      0.00000000	      0.00039545	      0.02450088	      0.01992568	     -0.06610052	      0.00000000	      0.42346637	      0.00000000	      1.25794023	     -0.00000000
      5.25200000	    -67.98304187	    701.45412338	     29.84101141	      0.11480684	     -0.00000000	      0.04751481	     -0.00000000	     -1.27395210	      0.00000000	      0.00051248	      0.02848422	      0.02315361	     -0.06562471	      0.00000000	      0.42452906	      0.00000000	      1.26146444	     -0.00000000
      5.25300000	    -67.96281197	    701.15908961	     29.80669244	      0.11480992	     -0.00000000	      0.04733650	     -0.00000000	     -1.26377468	      0.00000000	      0.00065604	      0.03305356	      0.02685347	     -0.06515365	      0.00000000	      0.42558642	      0.00000000	      1.26500377	     -0.00000000
      5.25400000	    -67.94504907	    700.86158164	     29.76818081	      0.11481296	     -0.00000000	      0.04715867	     -0.00000000	     -1.25307491	      0.00000000	      0.00083109	      0.03828469	      0.03108556	     -0.06468795	      0.00000000	      0.42663773	      0.00000000	      1.26855988	     -0.00000000
      5.25500000	    -67.92966645	    700.56120642	     29.72577406	      0.11481599	     -0.00000000	      0.04698112	     -0.00000000	     -1.24194734	      0.00000000	      0.00104336	      0.04426150	      0.03591650	     -0.06422831	      0.00000000	      0.42768219	      0.00000000	      1.27213451	     -0.00000000
      5.25600000	    -67.91656464	    700.25756284	     29.67976995	      0.11481900	     -0.00000000	      0.04680366	     -0.00000000	     -1.23048625	      0.00000000	      0.00129945	      0.05107670	      0.04141969	     -0.06377548	      0.00000000	      0.42871891	      0.00000000	      1.27572952	     -0.00000000
      5.25700000	    -67.90563292	    699.95024427	     29.63046503	      0.11482202	     -0.00000000	      0.04662608	     -0.00000000	     -1.21878471	      0.00000000	      0.00160690	      0.05883244	      0.04767580	     -0.06333031	      0.00000000	      0.42974690	      0.00000000	      1.27934690	     -0.00000000
      5.25800000	    -67.89675097	    699.63884116	     29.57815334	      0.11482505	     -0.00000000	      0.04644823	     -0.00000000	     -1.20693368	      0.00000000	      0.00197435	      0.06764096	      0.05477318	     -0.06289370	      0.00000000	      0.43076506	      0.00000000	      1.28298869	     -0.00000000
      5.25900000	    -67.88979048	    699.32294351	     29.52312521	      0.11482812	     -0.00000000	      0.04626991	     -0.00000000	     -1.19502113	      0.00000000	      0.00241161	      0.07762530	      0.06280832	     -0.06246668	      0.00000000	      0.43177220	      0.00000000	      1.28665702	     -0.00000000
      5.26000000	    -67.88461686	    699.00214328	     29.46566631	      0.11483122	     -0.00000000	      0.04609098	     -0.00000000	     -1.18313127	      0.00000000	      0.00292983	      0.08891994	      0.07188633	     -0.06205035	      0.00000000	      0.43276700	      0.00000000	      1.29035411	     -0.00000000
      5.26100000	    -67.88109098	    698.67603674	     29.40605678	      0.11483440	     -0.00000000	      0.04591129	     -0.00000000	     -1.17134373	      0.00000000	      0.00354158	      0.10167150	      0.08212133	     -0.06164591	      0.00000000	      0.43374801	      0.00000000	      1.29408217	     -0.00000000
      5.26200000	    -67.87907081	    698.34422671	     29.34457050	      0.11483764	     -0.00000000	      0.04573071	     -0.00000000	     -1.15973290	      0.00000000	      0.00426102	      0.11603939	      0.09363684	     -0.06125466	      0.00000000	      0.43471365	      0.00000000	      1.29784348	     -0.00000000
      5.26300000	    -67.87841317	    698.00632461	     29.28147457	      0.11484099	     -0.00000000	      0.04554911	     -0.00000000	     -1.14836727	      0.00000000	      0.00510407	      0.13219646	      0.10656613	     -0.06087802	      0.00000000	      0.43566221	      0.00000000	      1.30164024	     -0.00000000
      5.26400000	    -67.87897531	    697.66195251	     29.21702882	      0.11484445	     -0.00000000	      0.04536638	     -0.00000000	     -1.13730889	      0.00000000	      0.00608850	      0.15032958	      0.12105255	     -0.06051752	      0.00000000	      0.43659182	      0.00000000	      1.30547466	     -0.00000000
      5.26500000	    -67.88061647	    697.31074492	     29.15148550	      0.11484804	     -0.00000000	      0.04518242	     -0.00000000	     -1.12661284	      0.00000000	      0.00723412	      0.17064027	      0.13724977	     -0.06017481	      0.00000000	      0.43750048	      0.00000000	      1.30934879	     -0.00000000
      5.26600000	    -67.88319941	    696.95235049	     29.08508906	      0.11485177	     -0.00000000	      0.04499717	     -0.00000000	     -1.11632684	      0.00000000	      0.00856297	      0.19334520	      0.15532195	     -0.05985166	      0.00000000	      0.43838600	      0.00000000	      1.31326457	     -0.00000000
      5.26700000	    -67.88659172	    696.58643357	     29.01807603	      0.11485567	     -0.00000000	      0.04481054	     -0.00000000	     -1.10649085	      0.00000000	      0.01009941	      0.21867666	      0.17544388	     -0.05954995	      0.00000000	      0.43924604	      0.00000000	      1.31722371	     -0.00000000
      5.26800000	    -67.89066712	    696.21267560	     28.95067494	      0.11485975	     -0.00000000	      0.04462249	     -0.00000000	     -1.09713686	      0.00000000	      0.01187036	      0.24688299	      0.19780096	     -0.05927171	      0.00000000	      0.44007812	      0.00000000	      1.32122766	     -0.00000000
      5.26900000	    -67.89530655	    695.83077633	     28.88310635	      0.11486403	     -0.00000000	      0.04443299	     -0.00000000	     -1.08828864	      0.00000000	      0.01390538	      0.27822892	      0.22258916	     -0.05901908	      0.00000000	      0.44087955	      0.00000000	      1.32527752	     -0.00000000
      5.27000000	    -67.90039914	    695.44045495	     28.81558288	      0.11486851	     -0.00000000	      0.04424201	     -0.00000000	     -1.07996165	      0.00000000	      0.01623693	      0.31299579	      0.25001480	     -0.05879433	      0.00000000	      0.44164749	      0.00000000	      1.32937397	     -0.00000000
